<mxfile host="app.diagrams.net" agent="Mozilla/5.0 (Windows NT 10.0; Win64; x64) AppleWebKit/537.36 (KHTML, like Gecko) Chrome/133.0.0.0 Safari/537.36" version="26.0.11">
  <diagram id="iBoVgM_BSR-A7u7Vb_Cl" name="Page-1">
    <mxGraphModel dx="1434" dy="1846" grid="1" gridSize="10" guides="1" tooltips="1" connect="1" arrows="1" fold="1" page="1" pageScale="1" pageWidth="850" pageHeight="1100" math="0" shadow="0">
      <root>
        <mxCell id="0" />
        <mxCell id="1" parent="0" />
        <mxCell id="_vAE2yXoMwBNLnV8YjzG-1" value="Alumnos" style="rounded=0;whiteSpace=wrap;html=1;" parent="1" vertex="1">
          <mxGeometry x="120" y="40" width="120" height="40" as="geometry" />
        </mxCell>
        <mxCell id="_vAE2yXoMwBNLnV8YjzG-2" value="DNIAlu" style="ellipse;whiteSpace=wrap;html=1;" parent="1" vertex="1">
          <mxGeometry x="80" y="-40" width="80" height="40" as="geometry" />
        </mxCell>
        <mxCell id="_vAE2yXoMwBNLnV8YjzG-3" value="" style="endArrow=classic;html=1;rounded=0;exitX=0.5;exitY=1;exitDx=0;exitDy=0;entryX=0.25;entryY=0;entryDx=0;entryDy=0;" parent="1" source="_vAE2yXoMwBNLnV8YjzG-2" target="_vAE2yXoMwBNLnV8YjzG-1" edge="1">
          <mxGeometry width="50" height="50" relative="1" as="geometry">
            <mxPoint x="520" y="410" as="sourcePoint" />
            <mxPoint x="570" y="360" as="targetPoint" />
          </mxGeometry>
        </mxCell>
        <mxCell id="_vAE2yXoMwBNLnV8YjzG-4" value="Escuelas" style="rounded=0;whiteSpace=wrap;html=1;" parent="1" vertex="1">
          <mxGeometry x="560" y="40" width="120" height="40" as="geometry" />
        </mxCell>
        <mxCell id="_vAE2yXoMwBNLnV8YjzG-5" value="CodEsc" style="ellipse;whiteSpace=wrap;html=1;" parent="1" vertex="1">
          <mxGeometry x="640" y="-40" width="80" height="40" as="geometry" />
        </mxCell>
        <mxCell id="_vAE2yXoMwBNLnV8YjzG-6" value="" style="endArrow=classic;html=1;rounded=0;exitX=0.5;exitY=1;exitDx=0;exitDy=0;entryX=0.75;entryY=0;entryDx=0;entryDy=0;" parent="1" source="_vAE2yXoMwBNLnV8YjzG-5" target="_vAE2yXoMwBNLnV8YjzG-4" edge="1">
          <mxGeometry width="50" height="50" relative="1" as="geometry">
            <mxPoint x="-15" y="520" as="sourcePoint" />
            <mxPoint x="10" y="570" as="targetPoint" />
          </mxGeometry>
        </mxCell>
        <mxCell id="_vAE2yXoMwBNLnV8YjzG-8" value="Asignaturas" style="rounded=0;whiteSpace=wrap;html=1;" parent="1" vertex="1">
          <mxGeometry x="337.5" y="220" width="120" height="40" as="geometry" />
        </mxCell>
        <mxCell id="_vAE2yXoMwBNLnV8YjzG-9" value="CodAsi" style="ellipse;whiteSpace=wrap;html=1;" parent="1" vertex="1">
          <mxGeometry x="277.5" y="300" width="75" height="40" as="geometry" />
        </mxCell>
        <mxCell id="_vAE2yXoMwBNLnV8YjzG-10" value="" style="endArrow=classic;html=1;rounded=0;exitX=0.5;exitY=0;exitDx=0;exitDy=0;entryX=0;entryY=1;entryDx=0;entryDy=0;" parent="1" source="_vAE2yXoMwBNLnV8YjzG-9" target="_vAE2yXoMwBNLnV8YjzG-8" edge="1">
          <mxGeometry width="50" height="50" relative="1" as="geometry">
            <mxPoint x="300" y="290" as="sourcePoint" />
            <mxPoint x="-92.5" y="940" as="targetPoint" />
          </mxGeometry>
        </mxCell>
        <mxCell id="_vAE2yXoMwBNLnV8YjzG-17" value="Nom&lt;span style=&quot;background-color: transparent; color: light-dark(rgb(0, 0, 0), rgb(255, 255, 255));&quot;&gt;CiuAlu&lt;/span&gt;" style="ellipse;whiteSpace=wrap;html=1;" parent="1" vertex="1">
          <mxGeometry width="80" height="40" as="geometry" />
        </mxCell>
        <mxCell id="_vAE2yXoMwBNLnV8YjzG-18" value="" style="endArrow=classic;html=1;rounded=0;exitX=1;exitY=0.5;exitDx=0;exitDy=0;entryX=0;entryY=0;entryDx=0;entryDy=0;" parent="1" source="_vAE2yXoMwBNLnV8YjzG-17" target="_vAE2yXoMwBNLnV8YjzG-1" edge="1">
          <mxGeometry width="50" height="50" relative="1" as="geometry">
            <mxPoint x="500" y="-170" as="sourcePoint" />
            <mxPoint x="110" y="40" as="targetPoint" />
          </mxGeometry>
        </mxCell>
        <mxCell id="_vAE2yXoMwBNLnV8YjzG-22" value="NomAlu" style="ellipse;whiteSpace=wrap;html=1;" parent="1" vertex="1">
          <mxGeometry x="80" y="120" width="80" height="40" as="geometry" />
        </mxCell>
        <mxCell id="_vAE2yXoMwBNLnV8YjzG-23" value="" style="endArrow=classic;html=1;rounded=0;exitX=0.5;exitY=0;exitDx=0;exitDy=0;entryX=0.25;entryY=1;entryDx=0;entryDy=0;" parent="1" source="_vAE2yXoMwBNLnV8YjzG-22" target="_vAE2yXoMwBNLnV8YjzG-1" edge="1">
          <mxGeometry width="50" height="50" relative="1" as="geometry">
            <mxPoint x="330" y="10" as="sourcePoint" />
            <mxPoint x="370" y="50" as="targetPoint" />
          </mxGeometry>
        </mxCell>
        <mxCell id="_vAE2yXoMwBNLnV8YjzG-24" value="DirAlu" style="ellipse;whiteSpace=wrap;html=1;" parent="1" vertex="1">
          <mxGeometry y="80" width="80" height="40" as="geometry" />
        </mxCell>
        <mxCell id="_vAE2yXoMwBNLnV8YjzG-25" value="" style="endArrow=classic;html=1;rounded=0;entryX=0;entryY=1;entryDx=0;entryDy=0;exitX=1;exitY=0.5;exitDx=0;exitDy=0;" parent="1" source="_vAE2yXoMwBNLnV8YjzG-24" target="_vAE2yXoMwBNLnV8YjzG-1" edge="1">
          <mxGeometry width="50" height="50" relative="1" as="geometry">
            <mxPoint x="120" y="60" as="sourcePoint" />
            <mxPoint x="460" y="-150" as="targetPoint" />
          </mxGeometry>
        </mxCell>
        <mxCell id="_vAE2yXoMwBNLnV8YjzG-26" value="NomEsc" style="ellipse;whiteSpace=wrap;html=1;" parent="1" vertex="1">
          <mxGeometry x="640" y="120" width="80" height="40" as="geometry" />
        </mxCell>
        <mxCell id="_vAE2yXoMwBNLnV8YjzG-27" value="" style="endArrow=classic;html=1;rounded=0;exitX=0.5;exitY=0;exitDx=0;exitDy=0;entryX=0.75;entryY=1;entryDx=0;entryDy=0;" parent="1" source="_vAE2yXoMwBNLnV8YjzG-26" target="_vAE2yXoMwBNLnV8YjzG-4" edge="1">
          <mxGeometry width="50" height="50" relative="1" as="geometry">
            <mxPoint x="90" y="130" as="sourcePoint" />
            <mxPoint x="130" y="90" as="targetPoint" />
          </mxGeometry>
        </mxCell>
        <mxCell id="_vAE2yXoMwBNLnV8YjzG-28" value="NomEst" style="ellipse;whiteSpace=wrap;html=1;" parent="1" vertex="1">
          <mxGeometry x="360" y="300" width="75" height="40" as="geometry" />
        </mxCell>
        <mxCell id="_vAE2yXoMwBNLnV8YjzG-29" value="" style="endArrow=classic;html=1;rounded=0;exitX=0.5;exitY=0;exitDx=0;exitDy=0;entryX=0.5;entryY=1;entryDx=0;entryDy=0;" parent="1" source="_vAE2yXoMwBNLnV8YjzG-28" target="_vAE2yXoMwBNLnV8YjzG-8" edge="1">
          <mxGeometry width="50" height="50" relative="1" as="geometry">
            <mxPoint x="142.5" y="385" as="sourcePoint" />
            <mxPoint x="142.5" y="515" as="targetPoint" />
          </mxGeometry>
        </mxCell>
        <mxCell id="_vAE2yXoMwBNLnV8YjzG-30" value="Matriculas" style="rhombus;whiteSpace=wrap;html=1;" parent="1" vertex="1">
          <mxGeometry x="357.5" y="20" width="80" height="80" as="geometry" />
        </mxCell>
        <mxCell id="_vAE2yXoMwBNLnV8YjzG-31" value="Nivel" style="ellipse;whiteSpace=wrap;html=1;" parent="1" vertex="1">
          <mxGeometry x="442.5" y="300" width="75" height="40" as="geometry" />
        </mxCell>
        <mxCell id="_vAE2yXoMwBNLnV8YjzG-34" value="" style="endArrow=classic;html=1;rounded=0;exitX=0.5;exitY=0;exitDx=0;exitDy=0;entryX=0.5;entryY=1;entryDx=0;entryDy=0;" parent="1" source="_vAE2yXoMwBNLnV8YjzG-8" target="_vAE2yXoMwBNLnV8YjzG-30" edge="1">
          <mxGeometry width="50" height="50" relative="1" as="geometry">
            <mxPoint x="450" y="290" as="sourcePoint" />
            <mxPoint x="367.5" y="290" as="targetPoint" />
          </mxGeometry>
        </mxCell>
        <mxCell id="_vAE2yXoMwBNLnV8YjzG-35" value="Grupo" style="ellipse;whiteSpace=wrap;html=1;" parent="1" vertex="1">
          <mxGeometry x="480" y="100" width="80" height="40" as="geometry" />
        </mxCell>
        <mxCell id="_vAE2yXoMwBNLnV8YjzG-37" value="Aula" style="ellipse;whiteSpace=wrap;html=1;" parent="1" vertex="1">
          <mxGeometry x="457.5" y="150" width="80" height="40" as="geometry" />
        </mxCell>
        <mxCell id="_vAE2yXoMwBNLnV8YjzG-38" value="Curso" style="ellipse;whiteSpace=wrap;html=1;" parent="1" vertex="1">
          <mxGeometry x="272.5" y="120" width="80" height="40" as="geometry" />
        </mxCell>
        <mxCell id="ZxtDWUGaORyGt7M1l14Z-1" value="DirEsc" style="ellipse;whiteSpace=wrap;html=1;" parent="1" vertex="1">
          <mxGeometry x="720" y="80" width="80" height="40" as="geometry" />
        </mxCell>
        <mxCell id="ZxtDWUGaORyGt7M1l14Z-2" value="" style="endArrow=classic;html=1;rounded=0;entryX=1;entryY=1;entryDx=0;entryDy=0;exitX=0;exitY=0.5;exitDx=0;exitDy=0;" parent="1" source="ZxtDWUGaORyGt7M1l14Z-1" target="_vAE2yXoMwBNLnV8YjzG-4" edge="1">
          <mxGeometry width="50" height="50" relative="1" as="geometry">
            <mxPoint x="90" y="70" as="sourcePoint" />
            <mxPoint x="130" y="70" as="targetPoint" />
          </mxGeometry>
        </mxCell>
        <mxCell id="ZxtDWUGaORyGt7M1l14Z-3" value="Nom&lt;span style=&quot;background-color: transparent; color: light-dark(rgb(0, 0, 0), rgb(255, 255, 255));&quot;&gt;CiuEsc&lt;/span&gt;" style="ellipse;whiteSpace=wrap;html=1;" parent="1" vertex="1">
          <mxGeometry x="720" width="80" height="40" as="geometry" />
        </mxCell>
        <mxCell id="ZxtDWUGaORyGt7M1l14Z-4" value="" style="endArrow=classic;html=1;rounded=0;exitX=0;exitY=0.5;exitDx=0;exitDy=0;entryX=1;entryY=0;entryDx=0;entryDy=0;" parent="1" source="ZxtDWUGaORyGt7M1l14Z-3" target="_vAE2yXoMwBNLnV8YjzG-4" edge="1">
          <mxGeometry width="50" height="50" relative="1" as="geometry">
            <mxPoint x="90" y="10" as="sourcePoint" />
            <mxPoint x="570" y="-10" as="targetPoint" />
          </mxGeometry>
        </mxCell>
        <mxCell id="ZxtDWUGaORyGt7M1l14Z-7" value="" style="endArrow=classic;html=1;rounded=0;entryX=0;entryY=0.5;entryDx=0;entryDy=0;exitX=1;exitY=0.5;exitDx=0;exitDy=0;" parent="1" source="_vAE2yXoMwBNLnV8YjzG-1" target="_vAE2yXoMwBNLnV8YjzG-30" edge="1">
          <mxGeometry width="50" height="50" relative="1" as="geometry">
            <mxPoint x="290" y="60" as="sourcePoint" />
            <mxPoint x="550" y="200" as="targetPoint" />
          </mxGeometry>
        </mxCell>
        <mxCell id="ZxtDWUGaORyGt7M1l14Z-8" value="" style="endArrow=classic;html=1;rounded=0;entryX=1;entryY=0.5;entryDx=0;entryDy=0;exitX=0;exitY=0.5;exitDx=0;exitDy=0;" parent="1" source="_vAE2yXoMwBNLnV8YjzG-4" target="_vAE2yXoMwBNLnV8YjzG-30" edge="1">
          <mxGeometry width="50" height="50" relative="1" as="geometry">
            <mxPoint x="290" y="70" as="sourcePoint" />
            <mxPoint x="368" y="70" as="targetPoint" />
          </mxGeometry>
        </mxCell>
        <mxCell id="ZxtDWUGaORyGt7M1l14Z-9" value="" style="endArrow=classic;html=1;rounded=0;exitX=0.5;exitY=0;exitDx=0;exitDy=0;entryX=1;entryY=1;entryDx=0;entryDy=0;" parent="1" source="_vAE2yXoMwBNLnV8YjzG-31" target="_vAE2yXoMwBNLnV8YjzG-8" edge="1">
          <mxGeometry width="50" height="50" relative="1" as="geometry">
            <mxPoint x="270" y="230" as="sourcePoint" />
            <mxPoint x="350" y="30" as="targetPoint" />
          </mxGeometry>
        </mxCell>
        <mxCell id="ZxtDWUGaORyGt7M1l14Z-10" value="" style="endArrow=classic;html=1;rounded=0;exitX=0;exitY=0;exitDx=0;exitDy=0;entryX=1;entryY=1;entryDx=0;entryDy=0;" parent="1" source="_vAE2yXoMwBNLnV8YjzG-35" target="_vAE2yXoMwBNLnV8YjzG-30" edge="1">
          <mxGeometry width="50" height="50" relative="1" as="geometry">
            <mxPoint x="330" y="10" as="sourcePoint" />
            <mxPoint x="460" y="30" as="targetPoint" />
          </mxGeometry>
        </mxCell>
        <mxCell id="ZxtDWUGaORyGt7M1l14Z-11" value="" style="endArrow=classic;html=1;rounded=0;exitX=1;exitY=0;exitDx=0;exitDy=0;entryX=0;entryY=1;entryDx=0;entryDy=0;" parent="1" source="_vAE2yXoMwBNLnV8YjzG-38" target="_vAE2yXoMwBNLnV8YjzG-30" edge="1">
          <mxGeometry width="50" height="50" relative="1" as="geometry">
            <mxPoint x="330" y="10" as="sourcePoint" />
            <mxPoint x="387" y="90" as="targetPoint" />
          </mxGeometry>
        </mxCell>
        <mxCell id="ZxtDWUGaORyGt7M1l14Z-12" value="" style="endArrow=classic;html=1;rounded=0;exitX=0;exitY=0;exitDx=0;exitDy=0;entryX=0.656;entryY=0.875;entryDx=0;entryDy=0;entryPerimeter=0;" parent="1" source="_vAE2yXoMwBNLnV8YjzG-37" target="_vAE2yXoMwBNLnV8YjzG-30" edge="1">
          <mxGeometry width="50" height="50" relative="1" as="geometry">
            <mxPoint x="368" y="-40" as="sourcePoint" />
            <mxPoint x="450" y="140" as="targetPoint" />
          </mxGeometry>
        </mxCell>
        <mxCell id="ZxtDWUGaORyGt7M1l14Z-13" value="DNIAlu" style="ellipse;whiteSpace=wrap;html=1;" parent="1" vertex="1">
          <mxGeometry x="277.5" y="-40" width="80" height="40" as="geometry" />
        </mxCell>
        <mxCell id="ZxtDWUGaORyGt7M1l14Z-14" value="CodEst" style="ellipse;whiteSpace=wrap;html=1;" parent="1" vertex="1">
          <mxGeometry x="357.5" y="-80" width="80" height="40" as="geometry" />
        </mxCell>
        <mxCell id="ZxtDWUGaORyGt7M1l14Z-15" value="CodEsc" style="ellipse;whiteSpace=wrap;html=1;" parent="1" vertex="1">
          <mxGeometry x="437.5" y="-40" width="80" height="40" as="geometry" />
        </mxCell>
        <mxCell id="ZxtDWUGaORyGt7M1l14Z-16" value="" style="endArrow=classic;html=1;rounded=0;entryX=0;entryY=0;entryDx=0;entryDy=0;exitX=0.5;exitY=1;exitDx=0;exitDy=0;" parent="1" source="ZxtDWUGaORyGt7M1l14Z-13" target="_vAE2yXoMwBNLnV8YjzG-30" edge="1">
          <mxGeometry width="50" height="50" relative="1" as="geometry">
            <mxPoint x="250" y="70" as="sourcePoint" />
            <mxPoint x="368" y="70" as="targetPoint" />
          </mxGeometry>
        </mxCell>
        <mxCell id="ZxtDWUGaORyGt7M1l14Z-17" value="" style="endArrow=classic;html=1;rounded=0;entryX=1;entryY=0;entryDx=0;entryDy=0;exitX=0.5;exitY=1;exitDx=0;exitDy=0;" parent="1" source="ZxtDWUGaORyGt7M1l14Z-15" target="_vAE2yXoMwBNLnV8YjzG-30" edge="1">
          <mxGeometry width="50" height="50" relative="1" as="geometry">
            <mxPoint x="328" y="10" as="sourcePoint" />
            <mxPoint x="388" y="50" as="targetPoint" />
          </mxGeometry>
        </mxCell>
        <mxCell id="ZxtDWUGaORyGt7M1l14Z-18" value="" style="endArrow=classic;html=1;rounded=0;entryX=0.5;entryY=0;entryDx=0;entryDy=0;exitX=0.5;exitY=1;exitDx=0;exitDy=0;" parent="1" source="ZxtDWUGaORyGt7M1l14Z-14" target="_vAE2yXoMwBNLnV8YjzG-30" edge="1">
          <mxGeometry width="50" height="50" relative="1" as="geometry">
            <mxPoint x="488" y="10" as="sourcePoint" />
            <mxPoint x="428" y="50" as="targetPoint" />
          </mxGeometry>
        </mxCell>
      </root>
    </mxGraphModel>
  </diagram>
</mxfile>
